<svg xmlns="http://www.w3.org/2000/svg" width="32" height="12" viewBox="0 0 32 12" fill="none">
  <rect width="32" height="12" fill="none"/>
  <path d="M8 1.2 C8.9 1.2 9.4 2.4 9.9 3.1 C10.6 4.1 11.7 4.5 12.8 5.1 C13.3 5.4 13.9 5.7 13.9 6 C13.9 6.3 13.3 6.6 12.8 6.9 C11.7 7.5 10.6 7.9 9.9 8.9 C9.4 9.6 8.9 10.8 8 10.8 C7.1 10.8 6.6 9.6 6.1 8.9 C5.4 7.9 4.3 7.5 3.2 6.9 C2.7 6.6 2.1 6.3 2.1 6 C2.1 5.7 2.7 5.4 3.2 5.1 C4.3 4.5 5.4 4.1 6.1 3.1 C6.6 2.4 7.1 1.2 8 1.2 Z" fill="#29241E"/>
  <path d="M24 1.2 C24.9 1.2 25.4 2.4 25.9 3.1 C26.6 4.1 27.7 4.5 28.8 5.1 C29.3 5.4 29.9 5.7 29.9 6 C29.9 6.3 29.3 6.6 28.8 6.9 C27.7 7.5 26.6 7.9 25.9 8.9 C25.4 9.6 24.9 10.8 24 10.8 C23.1 10.8 22.6 9.6 22.1 8.9 C21.4 7.9 20.3 7.5 19.2 6.9 C18.7 6.6 18.1 6.3 18.1 6 C18.1 5.7 18.7 5.4 19.2 5.1 C20.3 4.5 21.4 4.1 22.1 3.1 C22.6 2.4 23.1 1.2 24 1.2 Z" fill="#29241E"/>
</svg>
